<svg width="32" height="32" viewBox="0 0 32 32" fill="none" xmlns="http://www.w3.org/2000/svg">
<path d="M5.356 23.788C5.56359 23.9964 5.72267 24.248 5.82188 24.5249C5.9211 24.8018 5.95801 25.0972 5.93 25.39C5.78944 26.7452 5.52295 28.0843 5.134 29.39C7.924 28.744 9.628 27.996 10.402 27.604C10.841 27.3816 11.3466 27.329 11.822 27.456C13.1849 27.8193 14.5895 28.0022 16 28C23.992 28 30 22.386 30 16C30 9.616 23.992 4 16 4C8.008 4 2 9.616 2 16C2 18.936 3.234 21.66 5.356 23.788ZM4.37 31.598C3.89614 31.6919 3.42074 31.7779 2.944 31.856C2.544 31.92 2.24 31.504 2.398 31.132C2.57558 30.7132 2.73835 30.2883 2.886 29.858L2.892 29.838C3.388 28.398 3.792 26.742 3.94 25.2C1.486 22.74 0 19.52 0 16C0 8.268 7.164 2 16 2C24.836 2 32 8.268 32 16C32 23.732 24.836 30 16 30C14.4153 30.0021 12.8372 29.7964 11.306 29.388C10.266 29.914 8.028 30.872 4.37 31.598Z" fill="#9747FF"/>
<path d="M14.132 13.52C13.7424 12.9133 13.1664 12.4494 12.4906 12.1981C11.8148 11.9468 11.0757 11.9216 10.3844 12.1263C9.69301 12.3311 9.0868 12.7547 8.65683 13.3335C8.22686 13.9122 7.99636 14.615 7.99998 15.336C8.00034 15.933 8.16103 16.519 8.46527 17.0328C8.7695 17.5465 9.20612 17.9692 9.7295 18.2565C10.2529 18.5438 10.8438 18.6853 11.4406 18.6663C12.0373 18.6472 12.618 18.4682 13.122 18.148C12.86 18.926 12.372 19.756 11.568 20.588C11.4142 20.7471 11.3298 20.9608 11.3336 21.1821C11.3355 21.2917 11.3589 21.3998 11.4025 21.5003C11.4462 21.6009 11.5092 21.6918 11.588 21.768C11.6668 21.8441 11.7598 21.904 11.8617 21.9442C11.9637 21.9845 12.0726 22.0042 12.1821 22.0023C12.4034 21.9986 12.6142 21.9071 12.768 21.748C15.74 18.668 15.354 15.32 14.132 13.524V13.52ZM22.132 13.52C21.7424 12.9133 21.1664 12.4494 20.4906 12.1981C19.8148 11.9468 19.0757 11.9216 18.3843 12.1263C17.693 12.3311 17.0868 12.7547 16.6568 13.3335C16.2269 13.9122 15.9964 14.615 16 15.336C16.0003 15.933 16.161 16.519 16.4653 17.0328C16.7695 17.5465 17.2061 17.9692 17.7295 18.2565C18.2529 18.5438 18.8438 18.6853 19.4406 18.6663C20.0373 18.6472 20.618 18.4682 21.122 18.148C20.86 18.926 20.372 19.756 19.568 20.588C19.4918 20.6668 19.4319 20.7598 19.3917 20.8617C19.3515 20.9637 19.3317 21.0725 19.3336 21.1821C19.3355 21.2917 19.3589 21.3998 19.4025 21.5003C19.4462 21.6009 19.5092 21.6918 19.588 21.768C19.6668 21.8441 19.7598 21.904 19.8617 21.9442C19.9637 21.9845 20.0726 22.0042 20.1821 22.0023C20.2917 22.0005 20.3998 21.9771 20.5004 21.9334C20.6009 21.8898 20.6918 21.8268 20.768 21.748C23.74 18.668 23.354 15.32 22.132 13.524V13.52Z" fill="#9747FF"/>
</svg>
